<?xml version="1.0" standalone="no"?>
<!DOCTYPE svg PUBLIC "-//W3C//DTD SVG 20010904//EN"
 "http://www.w3.org/TR/2001/REC-SVG-20010904/DTD/svg10.dtd">
<svg version="1.0" xmlns="http://www.w3.org/2000/svg"
 width="1080.000000pt" height="1080.000000pt" viewBox="0 0 1080.000000 1080.000000"
 preserveAspectRatio="xMidYMid meet" >

<g transform="translate(0.000000,1080.000000) scale(0.100000,-0.100000)"
fill="#80007f" stroke="none">
<path d="M2625 6230 c-588 -378 -871 -566 -873 -578 -2 -15 177 -141 865 -607
477 -323 875 -588 883 -589 13 -1 15 30 18 209 l2 210 -665 444 c-366 245
-665 445 -665 446 0 0 299 196 665 435 l665 435 -2 74 c-2 41 -7 76 -13 77 -5
2 -401 -248 -880 -556z" />
<path d="M3816 6769 c-9 -13 -16 -29 -16 -35 0 -17 31 -39 83 -58 36 -14 52
-27 64 -50 14 -30 10 -63 -80 -610 -71 -430 -100 -582 -112 -596 -10 -11 -41
-24 -70 -30 -62 -13 -78 -28 -73 -67 l3 -28 265 4 c146 2 268 6 271 10 4 3 10
16 13 28 10 33 -22 58 -92 72 -43 8 -65 18 -72 32 -8 14 -2 75 25 242 20 122
38 232 40 244 4 18 13 22 56 25 l51 3 51 -105 c104 -213 268 -420 398 -503 71
-45 165 -77 226 -77 62 0 75 9 71 50 -3 28 -8 34 -48 47 -115 39 -233 166
-352 378 -44 78 -122 245 -116 250 2 1 28 10 58 20 143 45 251 128 298 227 76
163 40 356 -83 449 -29 22 -79 50 -111 62 -56 21 -74 22 -359 22 -165 1 -316
4 -336 9 -32 7 -39 5 -53 -15z m607 -109 c99 -28 144 -118 134 -269 -6 -99
-23 -145 -74 -202 -63 -70 -161 -106 -335 -123 -50 -5 -58 -4 -58 11 0 28 81
496 93 538 16 55 44 67 132 61 39 -3 87 -11 108 -16z" />
<path d="M7007 6784 c-4 -4 -7 -100 -7 -214 l0 -206 665 -444 c366 -244 662
-447 657 -450 -4 -4 -303 -199 -664 -435 l-658 -428 0 -73 c0 -40 4 -75 9 -79
6 -3 402 246 880 552 776 497 871 561 870 583 0 22 -108 98 -865 610 -476 322
-869 586 -873 588 -4 1 -10 -1 -14 -4z" />
<path d="M5906 6748 c-69 -110 -1270 -2147 -1274 -2161 -4 -16 2 -18 68 -15
l72 3 644 1088 c355 598 642 1092 639 1097 -4 6 -35 10 -70 10 -56 0 -66 -3
-79 -22z" />
<path d="M6093 6703 c-10 -15 -306 -515 -658 -1112 l-640 -1086 -70 -5 c-68
-5 -71 -7 -66 -40 0 -6 37 -10 85 -10 l84 0 662 1119 c602 1019 660 1121 648
1140 -17 27 -24 26 -45 -6z" />
<path d="M8537 6666 c-78 -29 -117 -86 -117 -171 0 -78 20 -119 69 -144 61
-32 211 -27 211 6 0 11 -5 13 -17 8 -27 -11 -109 -18 -136 -11 -37 9 -75 50
-87 95 -30 111 75 234 174 201 51 -16 78 -52 83 -107 5 -53 -21 -118 -47 -118
-22 0 -23 34 -5 105 17 65 15 78 -7 64 -7 -5 -26 -7 -41 -5 -55 5 -130 -101
-112 -159 8 -25 60 -27 87 -4 16 16 18 16 24 0 8 -21 57 -21 90 0 75 50 70
177 -9 229 -35 22 -114 28 -160 11z m97 -94 c10 -16 -18 -103 -40 -123 -27
-25 -54 -19 -54 11 0 56 74 144 94 112z" />
<path d="M5869 5932 c-14 -36 11 -67 70 -87 63 -21 91 -54 91 -109 0 -22 -41
-286 -90 -586 -88 -542 -89 -545 -118 -571 -16 -14 -47 -29 -69 -32 -48 -8
-66 -26 -61 -64 l3 -28 490 0 c270 0 497 3 506 7 10 5 19 26 24 55 4 26 20 89
36 139 34 108 35 120 10 134 -38 20 -58 12 -87 -37 -73 -127 -119 -159 -252
-175 -115 -15 -260 0 -300 29 -51 38 -50 46 12 436 100 624 123 748 140 765 8
8 46 25 83 37 55 18 70 27 78 49 6 18 6 33 -1 44 -10 15 -39 17 -284 17 l-272
1 -9 -24z" />
</g>
</svg>
