<?xml version="1.0" standalone="no"?>
<!DOCTYPE svg PUBLIC "-//W3C//DTD SVG 20010904//EN"
 "http://www.w3.org/TR/2001/REC-SVG-20010904/DTD/svg10.dtd">
<svg version="1.0" xmlns="http://www.w3.org/2000/svg"
 width="1000.000000pt" height="500.000000pt" viewBox="0 0 1000.000000 500.000000"
 preserveAspectRatio="xMidYMid meet" >

<g transform="translate(0.000000,500.000000) scale(0.100000,-0.100000)"
fill="#9932cc" stroke="none">
<path d="M3313 4402 c-19 -12 -32 -56 -22 -74 5 -9 33 -24 62 -33 60 -20 103
-56 110 -93 6 -30 -209 -1355 -224 -1384 -13 -24 -39 -37 -100 -48 -29 -6 -58
-15 -66 -21 -16 -14 -17 -76 0 -82 26 -8 602 6 615 15 18 15 15 62 -5 80 -10
9 -45 21 -78 28 -75 15 -93 25 -100 53 -5 18 79 586 88 593 1 1 28 4 60 6 l58
5 68 -136 c108 -218 208 -360 341 -484 129 -122 233 -175 360 -184 67 -5 77
-3 94 15 32 37 15 66 -53 91 -129 47 -259 186 -400 428 -46 80 -141 285 -141
306 0 7 31 23 73 36 156 50 274 136 330 239 101 185 61 434 -86 539 -133 96
-190 105 -582 101 -170 -2 -328 0 -350 5 -22 4 -45 4 -52 -1z m651 -127 c123
-26 175 -82 198 -213 9 -56 9 -90 0 -153 -25 -171 -114 -268 -288 -313 -59
-15 -254 -40 -261 -33 -2 2 23 155 56 341 61 348 67 370 115 379 46 9 114 6
180 -8z"/>
<path d="M1910 3735 c-848 -548 -1015 -659 -1015 -678 0 -18 175 -139 1015
-704 558 -375 1020 -681 1025 -679 6 2 11 93 13 242 l2 239 -776 519 -776 518
194 127 c106 69 455 297 776 506 l582 380 -2 89 c-2 49 -7 91 -13 92 -5 2
-467 -291 -1025 -651z"/>
<path d="M7027 4383 c-4 -3 -7 -113 -7 -243 l0 -237 776 -517 776 -518 -163
-107 c-90 -58 -440 -286 -776 -506 l-613 -398 0 -88 c0 -48 4 -90 10 -94 5 -3
466 288 1024 647 913 587 1016 656 1016 679 0 23 -105 96 -1015 707 -558 375
-1016 682 -1018 682 -2 0 -7 -3 -10 -7z"/>
<path d="M5003 3112 c-414 -698 -753 -1274 -753 -1281 0 -8 23 -11 81 -9 l81
3 753 1270 c415 698 751 1273 749 1277 -3 4 -40 8 -82 8 l-77 0 -752 -1268z"/>
<path d="M5205 3035 l-767 -1295 -77 0 c-43 0 -80 -3 -84 -6 -3 -3 -1 -17 5
-30 11 -23 16 -24 104 -24 l92 0 763 1288 c419 708 767 1295 773 1304 8 13 6
22 -8 37 -11 12 -22 21 -26 21 -4 0 -353 -583 -775 -1295z"/>
<path d="M8808 4256 c-96 -35 -140 -91 -146 -182 -5 -81 1 -105 39 -149 55
-62 184 -82 277 -43 22 9 29 17 24 26 -7 10 -16 9 -45 -3 -82 -34 -181 -10
-224 54 -43 65 -25 179 39 238 71 66 186 52 230 -28 36 -64 7 -187 -46 -197
-21 -4 -21 36 0 129 16 70 14 93 -7 72 -6 -6 -25 -9 -43 -7 -47 7 -92 -26
-121 -89 -29 -61 -31 -89 -9 -111 20 -20 47 -20 85 0 28 14 32 14 43 -2 10
-13 21 -15 48 -10 136 25 163 217 40 289 -42 25 -136 32 -184 13z m108 -128
c-3 -13 -9 -40 -12 -60 -10 -61 -82 -120 -85 -70 -5 67 42 152 84 152 15 0 18
-5 13 -22z"/>
<path d="M5706 3419 c-32 -46 -13 -77 61 -103 85 -30 123 -72 123 -137 0 -71
-210 -1313 -227 -1338 -24 -38 -42 -49 -97 -61 -27 -6 -56 -15 -63 -22 -14
-12 -18 -74 -5 -82 5 -3 152 0 328 6 232 9 385 9 564 1 287 -13 284 -14 293
69 4 29 23 109 43 177 l37 124 -22 19 c-44 35 -66 24 -110 -50 -22 -37 -62
-89 -89 -114 -71 -67 -130 -83 -307 -83 -210 0 -279 25 -291 106 -5 31 28 242
156 1024 22 132 44 257 50 277 12 42 33 57 123 83 67 19 87 36 87 74 0 52 -11
54 -211 41 -100 -7 -212 -9 -248 -6 -36 4 -91 9 -122 12 -51 5 -58 3 -73 -17z"/>
<path d="M3545 1354 c-27 -13 -56 -24 -62 -24 -7 0 -13 -9 -13 -20 0 -15 7
-20 29 -20 17 0 31 -6 35 -16 3 -9 6 -152 6 -320 l0 -303 -31 -16 c-55 -29
-31 -40 95 -43 106 -2 117 -1 114 14 -2 10 -16 21 -33 26 -50 13 -55 30 -55
170 0 123 1 130 24 153 32 32 83 41 130 21 54 -22 66 -60 66 -205 0 -119 0
-119 -27 -139 -45 -33 -20 -43 98 -40 81 2 104 6 104 17 0 8 -16 19 -35 26
-43 15 -48 30 -49 173 -1 128 -16 173 -73 214 -46 33 -149 33 -195 1 -17 -13
-34 -23 -37 -23 -3 0 -6 86 -6 190 0 216 5 207 -85 164z"/>
<path d="M5625 1371 c-6 -5 -35 -18 -65 -29 -63 -23 -72 -45 -20 -52 l35 -5 0
-320 0 -319 -25 -13 c-14 -7 -25 -18 -25 -25 0 -10 30 -14 118 -16 108 -2 117
-1 117 16 0 12 -11 21 -32 27 -56 17 -58 27 -58 403 0 323 -1 342 -18 342 -10
0 -22 -4 -27 -9z"/>
<path d="M4531 1317 c-85 -27 -150 -131 -136 -216 15 -88 64 -129 226 -191
127 -48 159 -77 159 -146 0 -40 -5 -51 -38 -84 -89 -90 -239 -46 -298 87 -18
40 -29 53 -45 53 -20 0 -21 -4 -16 -47 3 -27 13 -71 22 -100 14 -48 19 -53 63
-70 33 -13 74 -18 137 -18 81 0 95 3 144 30 93 51 137 149 111 246 -18 66 -79
120 -182 158 -139 53 -160 64 -179 96 -24 38 -24 72 0 111 54 89 220 55 276
-56 18 -36 31 -50 47 -50 20 0 20 3 14 65 -12 118 -16 127 -44 122 -14 -3 -43
1 -65 9 -46 16 -147 17 -196 1z"/>
<path d="M1936 1303 c-2 -10 -8 -48 -12 -85 -5 -59 -4 -68 10 -68 10 0 24 17
35 44 22 51 35 56 149 56 l82 0 -2 -307 -3 -306 -35 -12 c-19 -6 -36 -18 -38
-26 -2 -12 20 -14 133 -14 100 0 135 3 135 12 0 7 -16 19 -35 27 -21 9 -39 26
-45 42 -6 16 -9 134 -8 303 l3 276 97 3 c110 3 133 -5 143 -48 5 -21 13 -30
26 -30 17 0 19 7 19 59 0 99 30 91 -330 91 -295 0 -319 -1 -324 -17z"/>
<path d="M6851 1234 c-27 -34 -26 -55 2 -82 31 -29 51 -28 76 4 26 33 26 39 0
75 -25 36 -51 37 -78 3z"/>
<path d="M6501 1095 c-18 -25 -46 -55 -62 -67 -39 -29 -39 -58 1 -58 l30 0 0
-152 c0 -135 2 -157 20 -186 23 -37 54 -52 110 -52 60 0 130 36 130 67 0 17
-21 17 -56 -2 -40 -20 -70 -19 -94 5 -18 18 -20 33 -20 170 l0 150 70 0 70 0
15 37 c18 42 8 61 -23 44 -11 -6 -46 -11 -76 -11 l-56 0 0 50 c0 64 -16 65
-59 5z"/>
<path d="M5868 1053 c-48 -4 -74 -29 -40 -39 47 -15 47 -14 52 -175 4 -130 8
-159 25 -188 42 -71 143 -92 228 -47 45 25 46 25 52 5 6 -19 12 -20 78 -14 40
4 76 11 82 16 12 12 -4 26 -35 31 l-25 3 -5 202 c-3 111 -8 204 -11 207 -3 4
-38 3 -78 0 -59 -6 -71 -10 -71 -25 0 -12 9 -19 28 -21 l27 -3 3 -154 3 -154
-27 -29 c-35 -36 -82 -45 -122 -24 -51 26 -56 46 -62 236 l-5 175 -25 1 c-14
0 -46 -1 -72 -3z"/>
<path d="M6843 1028 c-60 -29 -83 -58 -45 -58 37 0 42 -19 42 -172 0 -146 0
-148 -25 -164 -14 -9 -25 -23 -25 -30 0 -12 21 -14 113 -12 90 2 112 6 112 18
0 8 -14 17 -34 21 -18 4 -37 13 -42 21 -5 7 -9 102 -9 211 0 151 -3 197 -12
196 -7 0 -41 -14 -75 -31z"/>
<path d="M7768 1054 c-4 -3 -32 -16 -65 -29 -63 -26 -75 -48 -28 -53 16 -2 33
-9 37 -15 4 -7 8 -76 8 -154 0 -146 0 -146 -44 -177 -38 -26 -8 -36 110 -36
107 0 114 1 114 20 0 14 -7 20 -23 20 -12 0 -33 7 -45 16 -21 14 -22 22 -22
150 0 129 1 136 24 159 32 32 85 41 128 21 56 -27 62 -46 66 -196 l4 -136 -27
-12 c-51 -23 -24 -37 80 -40 54 -1 105 0 113 3 21 8 -1 31 -37 38 -37 8 -41
24 -41 168 0 102 -3 121 -23 160 -46 86 -148 114 -236 64 -51 -30 -53 -30 -50
-7 3 33 -1 42 -19 42 -10 0 -21 -3 -24 -6z"/>
<path d="M2683 1030 c-74 -38 -123 -122 -123 -211 0 -142 87 -238 215 -239 76
0 185 56 185 96 0 20 -16 18 -77 -12 -59 -29 -101 -29 -148 2 -34 22 -72 89
-81 142 l-7 42 151 0 c174 0 177 1 138 85 -33 72 -82 108 -154 112 -44 3 -67
-1 -99 -17z m115 -40 c31 -19 66 -76 56 -92 -3 -5 -48 -8 -100 -8 l-94 0 0 26
c0 31 58 94 87 94 10 0 33 -9 51 -20z"/>
<path d="M3173 1025 c-120 -60 -168 -210 -107 -334 47 -93 147 -132 261 -100
49 13 113 62 113 85 0 21 -23 17 -77 -12 -81 -43 -151 -21 -201 64 -22 38 -26
58 -26 116 -1 158 98 215 198 115 51 -52 70 -48 74 14 3 46 2 48 -32 62 -57
24 -144 19 -203 -10z"/>
<path d="M5082 1025 c-178 -90 -176 -344 3 -426 46 -21 129 -24 186 -7 138 41
201 218 123 344 -65 106 -202 144 -312 89z m177 -44 c46 -33 75 -104 76 -186
0 -83 -22 -130 -76 -159 -134 -73 -277 158 -191 308 37 65 127 82 191 37z"/>
<path d="M7212 1025 c-178 -90 -176 -344 3 -426 46 -21 129 -24 186 -7 138 41
201 218 123 344 -65 106 -202 144 -312 89z m177 -44 c46 -33 75 -104 76 -186
0 -83 -22 -130 -76 -159 -134 -73 -277 158 -191 308 37 65 127 82 191 37z"/>
<path d="M8338 1028 c-39 -23 -68 -69 -68 -110 0 -46 36 -86 112 -124 121 -60
145 -98 93 -149 -55 -56 -127 -14 -160 93 -5 17 -13 22 -28 20 -20 -3 -22 -9
-22 -72 l0 -69 50 -18 c143 -50 263 18 252 144 -5 61 -25 82 -117 125 -41 19
-83 41 -92 50 -44 38 1 100 61 87 29 -6 81 -55 81 -76 0 -12 37 -12 45 1 3 6
3 30 0 54 -6 38 -12 46 -38 55 -50 18 -128 13 -169 -11z"/>
</g>
</svg>
